<svg xmlns="http://www.w3.org/2000/svg" viewBox="0 0 100 100" preserveAspectRatio="xMidYMid" width="200" height="200" style="shape-rendering: auto; display: block; background: transparent;" xmlns:xlink="http://www.w3.org/1999/xlink"><g><g transform="rotate(0 50 50)">
  <rect fill="#a7c7e7" height="12" width="11" ry="5.4" rx="5.4" y="24" x="44.5">
    <animate repeatCount="indefinite" begin="-0.5178907721280602s" dur="0.5649717514124294s" keyTimes="0;1" values="1;0" attributeName="opacity"></animate>
  </rect>
</g><g transform="rotate(30 50 50)">
  <rect fill="#a7c7e7" height="12" width="11" ry="5.4" rx="5.4" y="24" x="44.5">
    <animate repeatCount="indefinite" begin="-0.4708097928436911s" dur="0.5649717514124294s" keyTimes="0;1" values="1;0" attributeName="opacity"></animate>
  </rect>
</g><g transform="rotate(60 50 50)">
  <rect fill="#a7c7e7" height="12" width="11" ry="5.4" rx="5.4" y="24" x="44.5">
    <animate repeatCount="indefinite" begin="-0.423728813559322s" dur="0.5649717514124294s" keyTimes="0;1" values="1;0" attributeName="opacity"></animate>
  </rect>
</g><g transform="rotate(90 50 50)">
  <rect fill="#a7c7e7" height="12" width="11" ry="5.4" rx="5.4" y="24" x="44.5">
    <animate repeatCount="indefinite" begin="-0.3766478342749529s" dur="0.5649717514124294s" keyTimes="0;1" values="1;0" attributeName="opacity"></animate>
  </rect>
</g><g transform="rotate(120 50 50)">
  <rect fill="#a7c7e7" height="12" width="11" ry="5.4" rx="5.4" y="24" x="44.5">
    <animate repeatCount="indefinite" begin="-0.32956685499058375s" dur="0.5649717514124294s" keyTimes="0;1" values="1;0" attributeName="opacity"></animate>
  </rect>
</g><g transform="rotate(150 50 50)">
  <rect fill="#a7c7e7" height="12" width="11" ry="5.4" rx="5.4" y="24" x="44.5">
    <animate repeatCount="indefinite" begin="-0.28248587570621464s" dur="0.5649717514124294s" keyTimes="0;1" values="1;0" attributeName="opacity"></animate>
  </rect>
</g><g transform="rotate(180 50 50)">
  <rect fill="#a7c7e7" height="12" width="11" ry="5.4" rx="5.4" y="24" x="44.5">
    <animate repeatCount="indefinite" begin="-0.23540489642184556s" dur="0.5649717514124294s" keyTimes="0;1" values="1;0" attributeName="opacity"></animate>
  </rect>
</g><g transform="rotate(210 50 50)">
  <rect fill="#a7c7e7" height="12" width="11" ry="5.4" rx="5.4" y="24" x="44.5">
    <animate repeatCount="indefinite" begin="-0.18832391713747645s" dur="0.5649717514124294s" keyTimes="0;1" values="1;0" attributeName="opacity"></animate>
  </rect>
</g><g transform="rotate(240 50 50)">
  <rect fill="#a7c7e7" height="12" width="11" ry="5.4" rx="5.4" y="24" x="44.5">
    <animate repeatCount="indefinite" begin="-0.14124293785310732s" dur="0.5649717514124294s" keyTimes="0;1" values="1;0" attributeName="opacity"></animate>
  </rect>
</g><g transform="rotate(270 50 50)">
  <rect fill="#a7c7e7" height="12" width="11" ry="5.4" rx="5.4" y="24" x="44.5">
    <animate repeatCount="indefinite" begin="-0.09416195856873823s" dur="0.5649717514124294s" keyTimes="0;1" values="1;0" attributeName="opacity"></animate>
  </rect>
</g><g transform="rotate(300 50 50)">
  <rect fill="#a7c7e7" height="12" width="11" ry="5.4" rx="5.4" y="24" x="44.5">
    <animate repeatCount="indefinite" begin="-0.047080979284369114s" dur="0.5649717514124294s" keyTimes="0;1" values="1;0" attributeName="opacity"></animate>
  </rect>
</g><g transform="rotate(330 50 50)">
  <rect fill="#a7c7e7" height="12" width="11" ry="5.4" rx="5.4" y="24" x="44.5">
    <animate repeatCount="indefinite" begin="0s" dur="0.5649717514124294s" keyTimes="0;1" values="1;0" attributeName="opacity"></animate>
  </rect>
</g><g></g></g><!-- [ldio] generated by https://loading.io --></svg>